<?xml version="1.0" standalone="no"?>
<!DOCTYPE svg PUBLIC "-//W3C//DTD SVG 20010904//EN"
 "http://www.w3.org/TR/2001/REC-SVG-20010904/DTD/svg10.dtd">
<svg version="1.0" xmlns="http://www.w3.org/2000/svg"
 width="213.000000pt" height="213.000000pt" viewBox="0 0 213.000000 213.000000"
 preserveAspectRatio="xMidYMid meet">
<metadata>
Created by potrace 1.14, written by Peter Selinger 2001-2017
</metadata>
<g transform="translate(0.000000,213.000000) scale(0.100000,-0.100000)"
fill="#000000" stroke="none">
<path d="M1320 2122 c-19 -1 -42 -5 -50 -9 -14 -5 -33 -5 -123 2 -34 2 -56
-13 -61 -42 -8 -37 23 -62 81 -66 29 -3 59 -10 67 -16 13 -11 31 -65 40 -121
2 -14 14 -69 26 -124 12 -54 23 -106 25 -115 2 -9 26 -124 54 -256 29 -132 61
-283 72 -335 11 -52 26 -122 34 -155 8 -33 16 -71 19 -85 3 -14 8 -36 11 -50
22 -87 23 -85 -97 -260 -62 -91 -120 -175 -129 -187 -15 -22 -18 -23 -312 -23
-164 -1 -301 1 -306 5 -5 3 -12 18 -16 33 -8 37 -58 98 -97 118 -34 18 -148
25 -194 13 -67 -19 -156 -137 -122 -163 8 -7 12 -27 10 -58 -4 -65 13 -122 51
-165 41 -47 81 -63 145 -58 62 5 102 24 136 67 l25 33 339 0 c286 0 341 3 353
15 28 29 79 104 79 116 0 7 12 14 28 16 31 3 33 21 3 28 -18 5 -14 14 46 103
l67 98 11 -43 c10 -39 8 -47 -18 -96 -52 -94 -37 -222 35 -289 85 -80 230 -60
292 40 70 114 31 279 -78 328 -22 10 -41 22 -42 26 -10 86 -35 133 -69 133 -8
0 -15 8 -15 17 0 9 -7 44 -15 77 -13 56 -110 509 -121 566 -3 14 -16 77 -30
140 -29 130 -27 120 -54 254 -12 55 -23 102 -24 105 -2 3 -7 22 -10 41 -3 20
-12 63 -20 98 -16 70 -14 74 48 79 22 2 47 10 56 18 19 17 44 19 68 6 9 -5 53
-12 96 -15 88 -7 116 5 116 50 0 41 -37 55 -151 57 -94 2 -106 4 -124 25 -20
23 -71 31 -155 24z"/>
</g>
</svg>
